<!-- Created with Inkscape (http://www.inkscape.org/) -->
<svg xmlns:rdf="http://www.w3.org/1999/02/22-rdf-syntax-ns#" xmlns="http://www.w3.org/2000/svg" height="28.438" width="24.656" version="1.1" xmlns:cc="http://creativecommons.org/ns#" xmlns:dc="http://purl.org/dc/elements/1.1/">
 <metadata>
  <rdf:RDF>
   <cc:Work rdf:about="">
    <dc:format>image/svg+xml</dc:format>
    <dc:type rdf:resource="http://purl.org/dc/dcmitype/StillImage"/>
    <dc:title/>
   </cc:Work>
  </rdf:RDF>
 </metadata>
 <g transform="translate(-253.46875,-258.6875)">
  <path style="fill:#000000;" d="M12.312,0l-0.312,0.1875-11.656,6.7187-0.34375,0.1876v0.4062,13.438,0.374l0.34375,0.219,11.656,6.719,0.312,0.188,0.344-0.188,11.656-6.719,0.344-0.219v-0.374-13.438-0.4062l-0.344-0.1876-11.656-6.7187-0.344-0.1875zm0.032,2.6875l9.937,5.75v11.532l-9.937,5.75-9.969-5.75v-11.532l9.969-5.75zm-0.032,3.0313l-6.062,3.5,6.062,3.5002,6.063-3.5002-6.063-3.5zm-7.3432,5.7502v7l6.0622,3.5v-7l-6.0622-3.5zm14.719,0l-6.063,3.5v7l6.063-3.5v-7z" transform="translate(253.46875,258.6875)"/>
 </g>
</svg>
