<?xml version="1.0" encoding="UTF-8" standalone="no"?>
<!-- Created with Inkscape (http://www.inkscape.org/) -->

<svg
   xmlns:dc="http://purl.org/dc/elements/1.1/"
   xmlns:cc="http://creativecommons.org/ns#"
   xmlns:rdf="http://www.w3.org/1999/02/22-rdf-syntax-ns#"
   xmlns:svg="http://www.w3.org/2000/svg"
   xmlns="http://www.w3.org/2000/svg"
   xmlns:sodipodi="http://sodipodi.sourceforge.net/DTD/sodipodi-0.dtd"
   xmlns:inkscape="http://www.inkscape.org/namespaces/inkscape"
   width="512.45599"
   height="512"
   id="svg2"
   version="1.1"
   inkscape:version="0.48.4 r9939"
   sodipodi:docname="New document 1">
  <defs
     id="defs4" />
  <sodipodi:namedview
     id="base"
     pagecolor="#ffffff"
     bordercolor="#666666"
     borderopacity="1.0"
     inkscape:pageopacity="0.0"
     inkscape:pageshadow="2"
     inkscape:zoom="0.7"
     inkscape:cx="669.23912"
     inkscape:cy="-83.11042"
     inkscape:document-units="px"
     inkscape:current-layer="layer1"
     showgrid="false"
     fit-margin-top="0"
     fit-margin-left="0"
     fit-margin-right="0"
     fit-margin-bottom="0"
     inkscape:window-width="1920"
     inkscape:window-height="1141"
     inkscape:window-x="0"
     inkscape:window-y="0"
     inkscape:window-maximized="1" />
  <metadata
     id="metadata7">
    <rdf:RDF>
      <cc:Work
         rdf:about="">
        <dc:format>image/svg+xml</dc:format>
        <dc:type
           rdf:resource="http://purl.org/dc/dcmitype/StillImage" />
        <dc:title></dc:title>
      </cc:Work>
    </rdf:RDF>
  </metadata>
  <g
     inkscape:label="Layer 1"
     inkscape:groupmode="layer"
     id="layer1"
     transform="translate(-98.311928,-88.369279)">
    <g
       transform="matrix(14.946633,0,0,14.933333,-2634.5865,-2357.764)"
       style="font-size:40px;font-style:normal;font-weight:normal;line-height:125%;letter-spacing:0px;word-spacing:0px;fill:#000000;fill-opacity:1;stroke:none;font-family:Sans"
       id="flowRoot2985">
      <path
         d="m 199.98661,163.80357 c -9.46428,0 -17.14286,7.67858 -17.14286,17.14286 0,9.46427 7.67858,17.14286 17.14286,17.14286 9.46427,0 17.14285,-7.67859 17.14285,-17.14286 0,-9.46428 -7.67858,-17.14286 -17.14285,-17.14286 m 6.11607,11.62947 c 0.24553,-0.15625 0.64732,-0.35715 0.95982,-0.26786 0.24554,0.067 0.44643,0.15625 0.15625,0.35714 -0.13393,0.0893 -0.33482,0 -0.49107,0.0446 0.20089,0.0447 0.49107,0.13393 0.40178,0.33483 0.58036,0.33482 -0.17857,0.7366 -0.55803,0.69196 0.17857,0.0223 -0.37947,0.35714 -0.37947,0.33482 -0.20089,0.11161 -0.46875,0.11161 -0.625,0.3125 -0.17857,0.24554 0.067,0.66964 -0.26785,0.58036 -0.13393,0.29018 -0.64732,0.13393 -0.87054,0.44643 0.24554,0.26785 -0.24553,0.64732 -0.49107,0.3125 -0.22321,0.0893 -0.11161,0.33482 -0.33482,0.46875 0.0893,0.13393 0.11161,0.26785 -0.0446,0.35714 0.0446,-0.0223 0.3125,0.20089 0.37946,0.22321 -0.0446,0.11161 -0.13393,0.2009 -0.24554,0.2009 0.11161,0.29018 -0.13392,0.60268 -0.33482,0.78125 -0.22321,0.17857 -0.7366,0.35714 -0.80357,0.40178 -0.40178,0.37947 -0.66964,0.9375 0.0446,1.09375 0.0223,0 0.0223,0.73661 0.0447,0.75893 0.0446,0.26786 0.15625,1.04911 -0.3125,0.75893 -0.22322,-0.11161 -0.35715,-0.73661 -0.42411,-0.98214 -0.067,-0.26786 -0.0893,-0.26786 -0.26786,-0.53572 -0.29018,0.33482 -0.33482,0.0893 -0.58035,-0.067 -0.24554,-0.13393 -0.60268,-0.0893 -0.73661,-0.22322 -0.33482,0.24554 -0.58036,0.17858 -0.64732,-0.20089 -0.0893,0.17857 0.0893,0.44643 0.067,0.51339 -0.11161,0.22322 -0.3125,0.17858 -0.49107,0.0447 -0.29018,-0.22322 -0.91518,0.15625 -1.25,0 0.0223,0 0.11161,0.0893 0.17857,0.13393 -0.067,0.26785 -0.22321,0.1116 -0.35714,0.20089 -0.15625,0.11161 -0.29018,0.33482 -0.42411,0.44643 0.29018,0.55803 -0.0223,1.09375 0,1.69643 0,0.44642 0.29018,1.22767 0.71429,1.47321 0.20089,0.11161 0.87053,0.15625 1.07143,0.067 0.3125,-0.13392 0.26785,-0.37946 0.37946,-0.64732 0.11161,-0.29018 0.24554,-0.4241 0.58036,-0.44643 0.95982,-0.0446 0.22321,0.73661 0.1116,1.1384 -0.067,0.29018 -0.0893,0.625 -0.13392,0.89285 0.1116,0.0447 0.22321,0.0223 0.33482,0.0223 0,-0.0893 0.067,-0.2009 0.067,-0.26786 0.13393,0.22321 0.58036,0.29018 0.71429,0.0223 0.15625,0.26786 0.46875,0.46875 0.51339,0.78125 0.0446,0.3125 0.33482,0.64732 -0.0893,0.64732 -0.3125,0 0.0447,0.625 0.0893,0.73661 0.24554,0.44643 0.64732,0.625 1.09375,0.40178 0,0.17858 -0.067,0.66965 -0.3125,0.71429 -0.22321,0.0446 -0.64732,-0.42411 -0.55804,-0.66964 -0.0223,0.0893 -0.0893,0.15625 -0.15625,0.20089 -0.22321,-0.26786 -0.60267,-0.40179 -0.80357,-0.66964 -0.0446,-0.067 -0.64732,-0.98215 -0.51339,-1.02679 -0.3125,0.13393 -0.9375,-0.0893 -1.22768,-0.24553 -0.46875,-0.24554 -0.53571,-0.89286 -1.11607,-0.80358 -0.40179,0.067 -0.51339,0.22322 -0.98214,0.0447 -0.3125,-0.11161 -0.58036,-0.33482 -0.89286,-0.49107 -0.35714,-0.2009 -0.98214,-0.40179 -1.11607,-0.84822 -0.13393,-0.35714 -0.0893,-0.78125 -0.29018,-1.11607 -0.13393,-0.22321 -0.53571,-0.66964 -0.82589,-0.66964 0.26785,0 -0.24554,-0.66965 -0.3125,-0.73661 -0.24554,-0.29018 -1.1384,-1.07143 -0.95982,-1.51786 0.0446,-0.067 -0.44643,-0.24553 -0.53572,-0.26785 0.0893,0.22321 0.11161,0.46875 0.22322,0.66964 0.1116,0.22321 0.24553,0.42411 0.37946,0.64732 0.24554,0.40179 0.58036,0.89286 0.53571,1.38393 -0.29017,0.0893 -0.20089,-0.33482 -0.29017,-0.51339 -0.15625,-0.29018 -0.58036,-0.29018 -0.69197,-0.60268 0.0446,-0.0223 0.067,-0.0223 0.11161,-0.0447 0.0223,-0.37946 -0.53572,-0.69196 -0.44643,-0.95982 -0.3125,-0.24553 -0.3125,-0.71428 -0.53571,-1.02678 -0.2009,-0.29018 -0.53572,-0.42411 -0.8259,-0.625 -0.1116,-0.067 -0.91518,-1.09375 -0.625,-1.16072 -0.44643,0.11161 -0.66964,-0.9375 -0.60268,-1.20535 0,0 -0.0446,0 -0.0446,-0.0223 0.0893,-0.26785 -0.067,-1.65178 0.29018,-1.6741 -0.24554,0.0223 -0.3125,-0.58036 -0.24554,-0.69197 0.0447,-0.0893 0.37947,0.24554 0.40179,0.29018 0.13393,-0.067 0.26786,-0.24553 0.22321,-0.40178 -0.067,-0.17858 -0.3125,-0.33483 -0.46875,-0.46875 -0.067,-0.0447 -0.95982,-0.625 -0.98214,-0.60268 0.0893,-0.15625 0.067,-0.3125 -0.067,-0.42411 -0.42411,0.33482 -0.2009,-0.3125 -0.42411,-0.37946 -0.0893,-0.0223 -0.17857,-0.0893 -0.26786,-0.17858 1.29464,-2.05357 3.10268,-3.77232 5.24554,-4.95535 0.13393,-0.0223 0.3125,-0.0223 0.49107,-0.0223 0.40179,0.0446 0.625,0.37946 0.91518,0.58035 0.0446,-0.1116 -0.0446,-0.29018 -0.11161,-0.40178 0.067,-0.17857 0.33482,-0.22322 0.49107,-0.26786 0.2009,-0.0223 0.49107,-0.067 0.66965,0.0223 -0.13393,-0.20089 -0.29018,-0.37946 -0.44643,-0.55803 -0.0223,0.0223 -0.0893,0.067 -0.11161,0.1116 -0.24554,-0.20089 -0.71429,0.067 -0.9375,0.15625 -0.17857,0.0893 -0.33482,0.2009 -0.51339,0.26786 -0.11161,0.0446 -0.17857,0.0446 -0.26786,0.0223 0.66964,-0.35714 1.36161,-0.66964 2.09821,-0.91518 0.13393,0.0893 0.26786,0.24554 0.46875,0.40179 -0.13392,-0.11161 -0.13392,0.40178 -0.0893,0.49107 0.24553,0.33482 0.78125,0.11161 1.11607,0.11161 -0.0223,0 0.98214,0.13393 0.78125,-0.11161 0.15625,0.22321 0.15625,0.55804 0.35714,0.75893 0.2009,-0.20089 -0.0893,-0.42411 0.0447,-0.625 0.0446,-0.0893 0.44642,-0.20089 0.58035,-0.26786 0.15625,-0.11161 -0.1116,-0.26786 -0.17857,-0.3125 -0.22321,-0.13393 -1.09375,-0.20089 -0.66964,-0.71428 0.15625,-0.17858 0.71428,-0.0893 0.89286,0.0223 0.24553,0.13393 0.51339,0.37946 0.17857,0.60268 0.15625,0.0223 0.89285,0.22321 0.78125,0.51339 0.067,-0.13393 0.17857,-0.33482 0.35714,-0.33482 0.20089,0.0223 0.24554,0.49107 0.33482,0.60268 0.3125,0.55803 0.84822,-0.55804 0.9375,-0.5134 -0.40178,-0.15625 0.35714,-0.35714 0.55804,-0.29018 0.15625,0.067 0.40178,0.60268 0.1116,0.58036 0.24554,0.22322 0.26786,0.71429 -0.17857,0.69197 -0.3125,-0.0223 -0.66964,-0.44643 -0.95982,-0.11161 -0.20089,0.22321 -0.29018,0.55803 -0.49107,0.75893 -0.3125,0.3125 -0.73661,0.29018 -1.11607,0.24553 0.15625,0.0223 -0.33482,0.53572 -0.37947,0.625 -0.13392,0.15625 -0.22321,0.33482 -0.26785,0.5134 -0.0447,0.22321 0,0.46875 -0.11161,0.69196 0.37946,-0.11161 0.58036,0.58036 0.42411,0.60268 0.46875,-0.067 0.84821,-0.067 1.29464,0.0893 0.3125,0.11161 0.78125,0.24554 0.91518,0.58036 0.0893,-0.13393 0.51339,-0.067 0.64732,-0.0223 0.26786,0.13393 0.29018,0.42411 0.35714,0.66964 0.0893,0.33482 0.37947,0.89286 0.75893,0.71429 0.067,-0.0446 0.55804,-0.26786 0.37947,-0.40179 -0.17858,-0.15625 -0.37947,-0.55803 -0.2009,-0.78125 0.17857,-0.24553 0.60268,-0.3125 0.71429,-0.625 0.17857,-0.51339 -0.53572,-0.44643 -0.53572,-0.82589 0,-0.22321 0.29018,-0.29018 0.26786,-0.55804 0,-0.22321 -0.33482,-0.66964 -0.067,-0.82589 0.22321,-0.13393 1.29464,0.0893 1.49553,0.22322 0.2009,0.13392 0.8259,0.3125 0.87054,0.51339 -0.0446,0 -0.067,0 -0.11161,0 0.17857,0.15625 0.33482,0.49107 0.0223,0.58036 0.2009,-0.0447 0.78125,0.17857 0.37947,0.3125 0.13393,-0.067 0.24553,-0.0223 0.37946,-0.11161 0.15625,-0.0893 0.24554,-0.24554 0.44643,-0.13393 0.0446,0.0223 0.29018,-0.46875 0.42411,-0.44643 0.20089,0.0223 0.24553,0.3125 0.33482,0.44643 0.0893,0.20089 0.33482,0.26786 0.42411,0.46875 0.15625,0.37946 0.0893,0.73661 0.60267,0.87054 0.15625,0.0446 0.58036,-0.2009 0.55804,0.13392 0.0893,-0.0893 0.13393,-0.15625 0.13393,-0.17857 0.0223,0.3125 0.15625,0.66965 0.53571,0.625 0,0 0,0.42411 -0.0446,0.49107 -0.13393,0.2009 -0.46875,0.15625 -0.66964,0.26786 -0.067,0.0223 -0.60268,0.49107 -0.53572,0.55804 -0.29018,-0.33482 -0.75893,-0.33482 -1.13839,-0.24554 -0.40179,0.067 -0.78125,0.11161 -1.16071,0.26786 -0.17858,0.0893 -0.35715,0.17857 -0.49108,0.33482 -0.067,0.0893 -0.17857,0.49107 -0.29017,0.51339 0.22321,-0.0446 0.33482,-0.29018 0.51339,-0.4241 m -3.63839,19.57589 c -0.0223,-0.11161 -0.0447,-0.33482 -0.0447,-0.35714 -0.0223,-0.35715 0.35715,-0.60268 0.33482,-0.9375 -0.24553,-0.067 -0.3125,-0.3125 -0.26785,-0.58036 0.0446,-0.37947 0.37946,-0.64732 0.64732,-0.89286 0.26786,-0.24553 0.33482,-0.75893 0.26786,-1.07143 -0.11161,-0.53571 -0.11161,-1.09375 -0.2009,-1.62946 0.0223,0.13393 0.40179,0.0893 0.46875,0.26786 0.0893,-0.15625 0.13393,-0.35715 0.24554,-0.5134 0.0893,-0.13393 0.24553,-0.17857 0.37946,-0.29018 0.22322,-0.13392 0.69197,-0.64732 0.95982,-0.33482 0.22322,0.26786 -0.33482,0.55804 -0.0446,0.80357 0.0893,-0.17857 0,-0.44642 0.17857,-0.625 0.35715,-0.40178 0.60268,0.0447 0.95982,0.15625 0.37947,0.11161 0.5134,0.24554 0.80358,0.49108 -0.0893,-0.0893 0.35714,-0.24554 0.40178,-0.26786 0.42411,-0.0893 0.60268,0.15625 0.89286,0.37946 0.3125,0.22322 0.80357,0.37947 0.75893,0.8259 0.22321,0.0446 0.35714,0.1116 0.53571,0.17857 0.17857,0.0893 0.42411,0.0446 0.55804,0.17857 -2.05357,2.16517 -4.77679,3.68303 -7.83482,4.21875"
         style=""
         id="path3000" />
    </g>
  </g>
</svg>
