<?xml version="1.0" encoding="UTF-8" standalone="no"?>
<!-- Created with Inkscape (http://www.inkscape.org/) -->

<svg
   xmlns:dc="http://purl.org/dc/elements/1.1/"
   xmlns:cc="http://creativecommons.org/ns#"
   xmlns:rdf="http://www.w3.org/1999/02/22-rdf-syntax-ns#"
   xmlns:svg="http://www.w3.org/2000/svg"
   xmlns="http://www.w3.org/2000/svg"
   xmlns:sodipodi="http://sodipodi.sourceforge.net/DTD/sodipodi-0.dtd"
   xmlns:inkscape="http://www.inkscape.org/namespaces/inkscape"
   width="512"
   height="512"
   viewBox="0 0 512 512.00001"
   id="svg3350"
   version="1.1"
   inkscape:version="0.91 r13725"
   sodipodi:docname="lightbulb.svg">
  <defs
     id="defs3352" />
  <sodipodi:namedview
     id="base"
     pagecolor="#ffffff"
     bordercolor="#666666"
     borderopacity="1.0"
     inkscape:pageopacity="0.0"
     inkscape:pageshadow="2"
     inkscape:zoom="0.98994949"
     inkscape:cx="320.86417"
     inkscape:cy="280.40917"
     inkscape:document-units="px"
     inkscape:current-layer="layer1"
     showgrid="true"
     objecttolerance="20"
     inkscape:snap-grids="true"
     inkscape:window-width="1920"
     inkscape:window-height="1017"
     inkscape:window-x="-8"
     inkscape:window-y="-8"
     inkscape:window-maximized="1"
     units="px"
     showborder="true"
     fit-margin-top="0"
     fit-margin-left="0"
     fit-margin-right="0"
     fit-margin-bottom="0">
    <inkscape:grid
       type="xygrid"
       id="grid3372"
       originx="-150"
       originy="-302.4045" />
  </sodipodi:namedview>
  <metadata
     id="metadata3355">
    <rdf:RDF>
      <cc:Work
         rdf:about="">
        <dc:format>image/svg+xml</dc:format>
        <dc:type
           rdf:resource="http://purl.org/dc/dcmitype/StillImage" />
        <dc:title></dc:title>
      </cc:Work>
    </rdf:RDF>
  </metadata>
  <g
     inkscape:label="Ebene 1"
     inkscape:groupmode="layer"
     id="layer1"
     transform="translate(-150,-237.95773)">
    <path
       id="path4196"
       style="fill:none;fill-rule:evenodd;stroke:#000000;stroke-width:15.60830498;stroke-linecap:butt;stroke-linejoin:round;stroke-miterlimit:4;stroke-dasharray:none;stroke-opacity:1"
       d="m 556.12225,503.12442 c -29.20709,26.95889 -49.23145,68.78001 -51.85509,110.57383 -1.46662,23.36274 -9.39097,34.24458 -18.97333,42.96198 -27.31124,20.96846 -128.58567,18.98231 -149.29715,0.0546 -11.32749,-11.48766 -11.85976,-20.65888 -17.33479,-45.16178 -8.00975,-35.84671 -37.92081,-84.11286 -37.92081,-84.11286 l -27.59006,-35.20704 c -13.13177,-23.41193 -22.59629,-47.83252 -22.59629,-76.20745 0,-92.38867 78.89384,-167.28449 176.21431,-167.28449 97.32047,0 176.21431,74.89582 176.21431,167.28449 0,27.4257 -4.92942,51.77371 -17.25204,74.61486 z"
       inkscape:connector-curvature="0"
       sodipodi:nodetypes="csccsccssscc" />
    <path
       style="fill:none;fill-rule:evenodd;stroke:#000000;stroke-width:15.60830498;stroke-linecap:butt;stroke-linejoin:miter;stroke-miterlimit:4;stroke-dasharray:none;stroke-opacity:1"
       d="m 370.7252,664.23678 0,-112.42821 c 24.02923,-34.21729 64.07793,-30.41537 80.09742,0 0,38.0192 0.28606,113.51447 0.28606,113.51447"
       id="path4204"
       inkscape:connector-curvature="0"
       sodipodi:nodetypes="cccc" />
    <path
       style="fill:none;fill-rule:evenodd;stroke:#000000;stroke-width:15.60830498;stroke-linecap:round;stroke-linejoin:miter;stroke-miterlimit:4;stroke-dasharray:none;stroke-opacity:1"
       d="M 395.6042,524.04297 355.55549,425.19304"
       id="path4206"
       inkscape:connector-curvature="0" />
    <path
       style="fill:none;fill-rule:evenodd;stroke:#000000;stroke-width:15.60830498;stroke-linecap:round;stroke-linejoin:miter;stroke-miterlimit:4;stroke-dasharray:none;stroke-opacity:1"
       d="m 424.00218,523.65891 40.04871,-98.84992"
       id="path4208"
       inkscape:connector-curvature="0" />
    <path
       style="fill:none;fill-rule:evenodd;stroke:#000000;stroke-width:15.60830498;stroke-linecap:butt;stroke-linejoin:miter;stroke-miterlimit:4;stroke-dasharray:none;stroke-opacity:1"
       d="m 354.70572,426.3452 c 0,0 24.02922,-26.61344 36.61596,-14.66455 15.73342,12.76359 23.4571,10.86263 36.3299,0.54313 11.15642,-12.49202 37.18808,13.84986 37.18808,13.84986"
       id="path4210"
       inkscape:connector-curvature="0"
       sodipodi:nodetypes="cccc" />
    <path
       style="opacity:1;fill:none;stroke:#000000;stroke-width:10.23097897;stroke-linecap:butt;stroke-linejoin:miter;stroke-miterlimit:4;stroke-dasharray:none;stroke-opacity:1"
       d="m 497.34962,640.95691 c -6.88285,11.55595 -6.11441,26.37958 -29.53237,37.04032 19.41309,12.15078 27.05894,15.56865 0.40457,25.34743 30.65924,13.03274 2.62515,28.24042 -19.21629,33.93103 -30.22188,9.51707 -47.6573,9.36364 -87.59443,-4.03255 -18.71999,-5.45998 -35.30564,-9.2233 -11.32748,-24.71378 -22.7645,-7.78132 -17.14142,-16.84515 1.61821,-29.76403 -27.57849,-13.15611 -23.12694,-28.40605 -26.90278,-40.49679 49.52647,-38.98256 129.62388,-42.78448 172.55057,2.68837 z"
       id="rect4218"
       inkscape:connector-curvature="0"
       sodipodi:nodetypes="ccccccccc" />
    <path
       style="opacity:1;fill:#000000;stroke:#000000;stroke-width:4.18079615;stroke-linecap:butt;stroke-linejoin:miter;stroke-miterlimit:4;stroke-dasharray:none;stroke-opacity:1"
       d="m 407.70966,738.63548 c -10.71045,-0.54309 -20.9618,-2.78614 -40.19173,-8.79418 -4.95603,-1.54841 -10.68443,-3.32477 -12.72977,-3.94748 -6.64184,-2.02208 -10.74006,-3.86756 -10.95636,-4.93381 -0.12397,-0.61111 3.27922,-3.9771 5.93192,-5.86706 1.19331,-0.85019 4.32453,-2.94136 6.95828,-4.64704 2.63374,-1.70568 4.78862,-3.18495 4.78862,-3.28728 0,-0.10232 -2.60674,-1.068 -5.79276,-2.14596 -7.39804,-2.50307 -11.78679,-4.50151 -13.67007,-6.22477 -0.90254,-0.82584 -1.41971,-1.529 -1.41971,-1.93027 0,-1.18384 1.28449,-3.1004 3.68918,-5.50453 2.72525,-2.72463 5.53023,-4.91621 12.39711,-9.68609 2.63276,-1.82876 4.85648,-3.43201 4.94162,-3.56278 0.0851,-0.13076 -2.4152,-1.47417 -5.55628,-2.98537 -5.32967,-2.56414 -11.98138,-6.38938 -11.65283,-6.70129 0.0796,-0.0757 1.34484,0.28645 2.81153,0.80458 3.61181,1.27595 8.88284,2.70045 13.68008,3.69706 32.6334,6.77945 79.40789,5.84114 107.23873,-2.15125 2.10498,-0.60451 3.87415,-1.05458 3.93148,-1.00015 0.18793,0.1784 -5.37421,3.01474 -10.24426,5.22391 -2.62571,1.19109 -4.78027,2.22672 -4.78792,2.30141 -0.008,0.0747 3.62009,2.39656 8.06163,5.15974 7.93718,4.93789 13.03737,8.36296 14.00535,9.4054 0.47272,0.50907 0.43744,0.56105 -0.97789,1.44065 -2.35688,1.46476 -7.2447,3.53499 -15.75893,6.67467 -4.37283,1.61251 -7.84848,3.02223 -7.72367,3.1327 0.1248,0.11047 3.4247,1.57792 7.33311,3.261 7.4487,3.20764 9.61497,4.32066 11.79447,6.05998 2.81447,2.24605 3.10373,3.83291 1.15641,6.3441 -3.0548,3.93937 -11.98547,8.78218 -22.142,12.00687 -20.60537,6.54221 -31.98034,8.52327 -45.11534,7.85724 z"
       id="path4243"
       inkscape:connector-curvature="0" />
    <path
       style="opacity:1;fill:#000000;stroke:#000000;stroke-width:4.18079615;stroke-linecap:butt;stroke-linejoin:miter;stroke-miterlimit:4;stroke-dasharray:none;stroke-opacity:1"
       d="m 359.65122,660.59655 c -6.24109,-1.51462 -9.1923,-2.49993 -13.47522,-4.4989 -2.52323,-1.17767 -3.97337,-2.06024 -5.3435,-3.25209 -3.13997,-2.7314 -6.43675,-7.29628 -8.19041,-11.34083 l -0.85784,-1.97847 2.34797,-1.65292 c 5.32134,-3.74614 11.45282,-7.31908 18.08138,-10.53637 4.64053,-2.25238 12.06902,-5.34634 12.30302,-5.1242 0.0795,0.0754 0.11142,9.00817 0.0711,19.85055 l -0.0734,19.71343 -4.86306,-1.1802 z"
       id="path4245"
       inkscape:connector-curvature="0" />
    <path
       style="opacity:1;fill:#000000;stroke:#000000;stroke-width:4.18079615;stroke-linecap:butt;stroke-linejoin:miter;stroke-miterlimit:4;stroke-dasharray:none;stroke-opacity:1"
       d="m 399.41386,665.60481 c -7.36021,-0.28158 -18.87643,-1.22653 -21.67083,-1.77818 l -0.78829,-0.15562 0.0731,-22.8469 0.0731,-22.84689 4.86305,-1.13457 c 18.98989,-4.43039 39.01727,-4.95349 56.51853,-1.47622 2.26966,0.45095 4.60939,0.94888 5.19939,1.10649 l 1.07273,0.28658 0,8.76842 c 0,4.82264 0.0851,15.36501 0.18919,23.4275 l 0.18919,14.65907 -3.97951,0.4585 c -13.5307,1.55895 -27.56638,2.07405 -41.73972,1.53182 z"
       id="path4247"
       inkscape:connector-curvature="0" />
    <path
       style="opacity:1;fill:#000000;stroke:#000000;stroke-width:4.18079615;stroke-linecap:butt;stroke-linejoin:miter;stroke-miterlimit:4;stroke-dasharray:none;stroke-opacity:1"
       d="m 457.24447,653.48694 c -0.10399,-4.28109 -0.18908,-13.4426 -0.18908,-20.3589 0,-11.86052 0.0284,-12.56537 0.50061,-12.40377 0.27533,0.0942 2.25388,0.9252 4.39676,1.84659 9.3111,4.00352 18.49112,9.84697 25.71129,16.36624 l 2.71759,2.45379 -0.52051,0.93394 c -0.822,1.47488 -3.65385,4.95271 -6.09246,7.48221 -3.37144,3.4971 -7.76786,6.0145 -14.61395,8.36793 -3.09304,1.06328 -10.46899,3.09578 -11.23459,3.09578 -0.44235,0 -0.50377,-0.70757 -0.67566,-7.78381 z"
       id="path4249"
       inkscape:connector-curvature="0" />
  </g>
</svg>
