<?xml version="1.0" encoding="UTF-8" standalone="no"?>
<!-- Created with Inkscape (http://www.inkscape.org/) -->

<svg
   xmlns:dc="http://purl.org/dc/elements/1.1/"
   xmlns:cc="http://creativecommons.org/ns#"
   xmlns:rdf="http://www.w3.org/1999/02/22-rdf-syntax-ns#"
   xmlns:svg="http://www.w3.org/2000/svg"
   xmlns="http://www.w3.org/2000/svg"
   xmlns:sodipodi="http://sodipodi.sourceforge.net/DTD/sodipodi-0.dtd"
   xmlns:inkscape="http://www.inkscape.org/namespaces/inkscape"
   width="512.45599"
   height="512"
   id="svg2"
   version="1.1"
   inkscape:version="0.48.4 r9939"
   sodipodi:docname="settings.svg"
   inkscape:export-filename="/homes/hoestreich/git-repos/bcozy/src/main/resources/icons/settings.png"
   inkscape:export-xdpi="90"
   inkscape:export-ydpi="90">
  <defs
     id="defs4" />
  <sodipodi:namedview
     id="base"
     pagecolor="#ffffff"
     bordercolor="#666666"
     borderopacity="1.0"
     inkscape:pageopacity="0.0"
     inkscape:pageshadow="2"
     inkscape:zoom="0.98994948"
     inkscape:cx="236.89746"
     inkscape:cy="301.64264"
     inkscape:document-units="px"
     inkscape:current-layer="layer1"
     showgrid="false"
     fit-margin-top="0"
     fit-margin-left="0"
     fit-margin-right="0"
     fit-margin-bottom="0"
     inkscape:window-width="1920"
     inkscape:window-height="1141"
     inkscape:window-x="0"
     inkscape:window-y="0"
     inkscape:window-maximized="1" />
  <metadata
     id="metadata7">
    <rdf:RDF>
      <cc:Work
         rdf:about="">
        <dc:format>image/svg+xml</dc:format>
        <dc:type
           rdf:resource="http://purl.org/dc/dcmitype/StillImage" />
        <dc:title></dc:title>
      </cc:Work>
    </rdf:RDF>
  </metadata>
  <g
     inkscape:label="Layer 1"
     inkscape:groupmode="layer"
     id="layer1"
     transform="translate(-98.311928,-88.369279)">
    <flowRoot
       xml:space="preserve"
       id="flowRoot3021"
       style="fill:black;stroke:none;stroke-opacity:1;stroke-width:1px;stroke-linejoin:miter;stroke-linecap:butt;fill-opacity:1;font-family:Sans;font-style:normal;font-weight:normal;font-size:40px;line-height:125%;letter-spacing:0px;word-spacing:0px"><flowRegion
         id="flowRegion3023"><rect
           id="rect3025"
           width="40"
           height="177.14285"
           x="325.71429"
           y="193.42857" /></flowRegion><flowPara
         id="flowPara3027" /></flowRoot>    <flowRoot
       xml:space="preserve"
       id="flowRoot3039"
       style="font-size:40px;font-style:normal;font-weight:normal;line-height:125%;letter-spacing:0px;word-spacing:0px;fill:#000000;fill-opacity:1;stroke:none;font-family:Sans"
       transform="matrix(14.933333,0,0,14.933333,-3197.8701,-3038.5995)"><flowRegion
         id="flowRegion3041"><rect
           id="rect3043"
           width="223.45497"
           height="132.7606"
           x="157.14285"
           y="217.71428" /></flowRegion><flowPara
         id="flowPara3040"></flowPara></flowRoot>    <path
       id="path3972"
       d="m 437.73991,485.16929 c 0,38.87499 -31.52497,70.39999 -70.39998,70.39999 -38.881,0 -70.4,-31.52549 -70.4,-70.4005 0,-34.51199 24.83151,-63.22449 57.6,-69.23749 V 254.7693 h 25.60001 v 161.1625 c 32.77499,6.01249 57.59997,34.72499 57.59997,69.23749 z m 44.80001,0 c 0,63.625 -51.57501,115.19999 -115.19999,115.19999 -63.625,0 -115.2,-51.57499 -115.2,-115.19999 0,-45.22449 26.06901,-84.375 64.00001,-103.22449 V 139.56929 c 0,-28.275 22.92499,-51.200011 51.19999,-51.200011 28.27501,0 51.19999,22.925011 51.19999,51.200011 v 242.375 c 37.925,18.85 64,58 64,103.225 z m -140.79998,-85.8875 c -37.01251,11.012 -64,45.30001 -64,85.88699 0,49.48801 40.11249,89.6 89.59949,89.6 49.48798,0 89.59999,-40.1125 89.59999,-89.6 0,-40.58749 -26.9875,-74.87499 -63.99998,-85.88699 v -259.7125 c 0,-14.1375 -11.46251,-25.60001 -25.60001,-25.60001 -14.137,0 -25.59949,11.46251 -25.59949,25.60001 v 259.7125 z M 303.33993,126.76928 v 12.80001 h -76.8 v -12.80001 h 76.8 z m 0,38.40001 v 12.79999 h -51.2 v -12.79999 h 51.2 z m 0,38.4 v 12.79999 h -76.8 v -12.79999 h 76.8 z m 0,38.4 v 12.80001 h -51.2 v -12.80001 h 51.2 z m 0,38.4 v 12.80001 h -76.8 v -12.80001 h 76.8 z m 0,38.39999 v 12.80001 h -51.2 v -12.80001 h 51.2 z m 0,38.40002 v 12.79999 h -76.8 V 357.1693 h 76.8 z"
       inkscape:connector-curvature="0"
       style="fill:#000000" />
  </g>
</svg>
